<svg width="42" height="42" viewBox="0 0 42 42" fill="none" xmlns="http://www.w3.org/2000/svg">
<path d="M37.1877 8.23393V19.0927L22.9077 4.81268H33.7664C34.6738 4.81268 35.544 5.17313 36.1856 5.81474C36.8272 6.45635 37.1877 7.32656 37.1877 8.23393ZM19.0927 37.1877H8.23393C7.32656 37.1877 6.45635 36.8272 5.81474 36.1856C5.17313 35.544 4.81268 34.6738 4.81268 33.7664V22.9077L19.0927 37.1877ZM35.1288 35.1288C34.476 35.7816 33.7011 36.2994 32.8482 36.6527C31.9953 37.006 31.0811 37.1879 30.1579 37.1879C29.2347 37.1879 28.3206 37.006 27.4677 36.6527C26.6148 36.2994 25.8398 35.7816 25.1871 35.1288L6.87156 16.8133C6.21876 16.1605 5.70093 15.3856 5.34763 14.5327C4.99434 13.6798 4.8125 12.7656 4.8125 11.8424C4.8125 10.9193 4.99434 10.0051 5.34763 9.1522C5.70093 8.2993 6.21876 7.52433 6.87156 6.87156C7.52433 6.21876 8.2993 5.70093 9.1522 5.34763C10.0051 4.99434 10.9193 4.8125 11.8424 4.8125C12.7656 4.8125 13.6798 4.99434 14.5327 5.34763C15.3856 5.70093 16.1605 6.21876 16.8133 6.87156L35.1288 25.1871C35.7816 25.8398 36.2994 26.6148 36.6527 27.4677C37.006 28.3206 37.1879 29.2347 37.1879 30.1579C37.1879 31.0811 37.006 31.9953 36.6527 32.8482C36.2994 33.7011 35.7816 34.476 35.1288 35.1288Z" stroke="#065988" stroke-width="2" stroke-linecap="round" stroke-linejoin="round"/>
</svg>
