<svg width="32" height="32" viewBox="0 0 32 32" fill="none" xmlns="http://www.w3.org/2000/svg">
<path d="M17.9609 11.3732C17.8626 11.2817 17.7838 11.1713 17.7292 11.0486C17.6745 10.9259 17.6451 10.7935 17.6428 10.6592C17.6404 10.525 17.6651 10.3916 17.7154 10.2671C17.7657 10.1426 17.8405 10.0295 17.9355 9.93449C18.0305 9.83954 18.1436 9.76468 18.2681 9.71438C18.3926 9.66409 18.526 9.63939 18.6602 9.64176C18.7945 9.64413 18.9269 9.67351 19.0496 9.72817C19.1723 9.78283 19.2827 9.86163 19.3742 9.95988L24.7075 15.2932C24.8948 15.4807 25 15.7349 25 15.9999C25 16.2649 24.8948 16.519 24.7075 16.7065L19.3742 22.0399C19.2827 22.1381 19.1723 22.2169 19.0496 22.2716C18.9269 22.3262 18.7945 22.3556 18.6602 22.358C18.526 22.3604 18.3926 22.3357 18.2681 22.2854C18.1436 22.2351 18.0305 22.1602 17.9355 22.0653C17.8405 21.9703 17.7657 21.8572 17.7154 21.7327C17.6651 21.6082 17.6404 21.4748 17.6428 21.3405C17.6451 21.2062 17.6745 21.0738 17.7292 20.9512C17.7838 20.8285 17.8626 20.7181 17.9609 20.6265L21.5875 16.9999L8.66755 16.9999C8.40233 16.9999 8.14798 16.8945 7.96044 16.707C7.7729 16.5194 7.66755 16.2651 7.66755 15.9999C7.66755 15.7347 7.7729 15.4803 7.96044 15.2928C8.14798 15.1052 8.40233 14.9999 8.66755 14.9999L21.5875 14.9999L17.9609 11.3732Z" fill="white"/>
</svg>
