<svg width="42" height="42" viewBox="0 0 42 42" fill="none" xmlns="http://www.w3.org/2000/svg">
<path d="M18.375 4.59375C18.375 4.4197 18.3059 4.25278 18.1828 4.12971C18.0597 4.00664 17.8928 3.9375 17.7188 3.9375C17.5447 3.9375 17.3778 4.00664 17.2547 4.12971C17.1316 4.25278 17.0625 4.4197 17.0625 4.59375V7.94325C16.2158 8.10046 15.4369 8.511 14.8286 9.12056L7.812 16.1385C7.01212 16.9384 6.56275 18.0234 6.56275 19.1546C6.56275 20.2859 7.01212 21.3708 7.812 22.1707L13.2628 27.6216C14.0628 28.4214 15.1477 28.8708 16.2789 28.8708C17.4102 28.8708 18.4951 28.4214 19.2951 27.6216L26.3117 20.6036C27.1116 19.8037 27.5609 18.7188 27.5609 17.5875C27.5609 16.4562 27.1116 15.3713 26.3117 14.5714L20.8622 9.12187C20.1921 8.45021 19.3166 8.02193 18.375 7.90519V4.59375ZM17.0625 9.28988V12.4688C17.0625 12.6428 17.1316 12.8097 17.2547 12.9328C17.3778 13.0559 17.5447 13.125 17.7188 13.125C17.8928 13.125 18.0597 13.0559 18.1828 12.9328C18.3059 12.8097 18.375 12.6428 18.375 12.4688V9.23212C18.9656 9.33926 19.5093 9.6246 19.9329 10.0498L25.3838 15.4993C25.7533 15.8687 26.0182 16.3295 26.1515 16.8347C26.2848 17.3399 26.2816 17.8714 26.1424 18.375H7.98C8.11125 17.8959 8.36456 17.4431 8.74125 17.0664L15.7579 10.0498C16.1346 9.67313 16.5848 9.41981 17.0638 9.28856M8.74125 21.2415C8.31674 20.8189 8.03145 20.2767 7.92356 19.6875H25.3706L18.3658 26.6936C18.0916 26.9679 17.766 27.1854 17.4077 27.3338C17.0495 27.4822 16.6654 27.5586 16.2776 27.5586C15.8898 27.5586 15.5058 27.4822 15.1475 27.3338C14.7892 27.1854 14.4637 26.9679 14.1894 26.6936L8.74125 21.2415ZM29.1257 21.567C29.2425 21.3921 29.4006 21.2487 29.586 21.1496C29.7715 21.0504 29.9785 20.9986 30.1888 20.9986C30.3991 20.9986 30.6061 21.0504 30.7916 21.1496C30.977 21.2487 31.1352 21.3921 31.2519 21.567C31.8827 22.4977 32.4705 23.4568 33.0133 24.4414C33.3073 24.9887 33.5803 25.5478 33.7811 26.0662C33.9754 26.5716 34.1263 27.0992 34.1263 27.5612C34.1263 28.6055 33.7115 29.607 32.973 30.3454C32.2346 31.0838 31.2331 31.4987 30.1888 31.4987C29.1445 31.4987 28.143 31.0838 27.4046 30.3454C26.6662 29.607 26.2513 28.6055 26.2513 27.5612C26.2513 27.0992 26.4023 26.5716 26.5965 26.0662C26.7973 25.5478 27.069 24.9887 27.3643 24.4427C27.9549 23.3494 28.6584 22.2613 29.1257 21.567ZM30.1888 22.3374C29.59 23.22 29.0329 24.1301 28.5193 25.0648C28.2397 25.5846 27.9943 26.0912 27.8211 26.5387C27.6426 27.0021 27.5638 27.3459 27.5638 27.5612C27.5638 28.2574 27.8404 28.9251 28.3327 29.4173C28.8249 29.9096 29.4926 30.1862 30.1888 30.1862C30.885 30.1862 31.5527 29.9096 32.045 29.4173C32.5372 28.9251 32.8138 28.2574 32.8138 27.5612C32.8138 27.3459 32.7351 27.0021 32.5566 26.5387C32.3546 26.0334 32.1214 25.5412 31.8583 25.0648C31.3443 24.1305 30.7867 23.2208 30.1875 22.3388M36.75 29.2031C36.751 28.524 36.5168 27.8654 36.0872 27.3394C36.0478 26.5873 35.8155 25.8759 35.616 25.3588L35.6094 25.3404C36.343 25.6848 36.9633 26.231 37.3977 26.915C37.8322 27.5991 38.0628 28.3928 38.0625 29.2031V33.7969C38.0625 34.9282 37.6131 36.0132 36.8131 36.8131C36.0132 37.6131 34.9282 38.0625 33.7969 38.0625H8.20312C7.07181 38.0625 5.98683 37.6131 5.18687 36.8131C4.38691 36.0132 3.9375 34.9282 3.9375 33.7969V29.2031C3.9376 28.1396 4.335 27.1145 5.05176 26.3287C5.76852 25.543 6.75295 25.0534 7.812 24.9559L9.10613 26.25H8.20312C7.41991 26.25 6.66877 26.5611 6.11495 27.115C5.56113 27.6688 5.25 28.4199 5.25 29.2031V33.7969C5.25 34.5801 5.56113 35.3312 6.11495 35.885C6.66877 36.4389 7.41991 36.75 8.20312 36.75H33.7969C34.5801 36.75 35.3312 36.4389 35.885 35.885C36.4389 35.3312 36.75 34.5801 36.75 33.7969V29.2031Z" fill="#065988"/>
</svg>
