<svg width="1037" height="212" viewBox="0 0 1037 212" fill="none" xmlns="http://www.w3.org/2000/svg">
<path d="M20 19.5031C119 7.50307 142.02 155.759 249.5 164.004C375.383 173.66 426 34.0054 539.5 34.0036C653 34.0018 667.07 188.137 774.5 194C886.536 200.115 912.2 51.27 1010 46.0036" stroke="#1B9AAA" stroke-width="4"/>
<rect width="37" height="37" rx="18.5" fill="#1B9AAA" fill-opacity="0.2"/>
<circle cx="18.5" cy="18.5" r="10.5" fill="#065988"/>
<rect x="240" y="147" width="37" height="37" rx="18.5" fill="#1B9AAA" fill-opacity="0.2"/>
<circle cx="258.5" cy="165.5" r="10.5" fill="#065988"/>
<rect x="534" y="15" width="37" height="37" rx="18.5" fill="#1B9AAA" fill-opacity="0.2"/>
<circle cx="552.5" cy="33.5" r="10.5" fill="#065988"/>
<rect x="755" y="175" width="37" height="37" rx="18.5" fill="#1B9AAA" fill-opacity="0.2"/>
<circle cx="773.5" cy="193.5" r="10.5" fill="#065988"/>
<rect x="1000" y="29" width="37" height="37" rx="18.5" fill="#1B9AAA" fill-opacity="0.2"/>
<circle cx="1018.5" cy="47.5" r="10.5" fill="#065988"/>
</svg>
