<svg width="42" height="42" viewBox="0 0 42 42" fill="none" xmlns="http://www.w3.org/2000/svg">
<path d="M13.1359 26.714C13.1819 26.8801 13.2601 27.0356 13.3662 27.1715C13.4722 27.3074 13.604 27.4211 13.754 27.5061C13.904 27.5911 14.0692 27.6457 14.2403 27.6668C14.4114 27.688 14.585 27.6752 14.7512 27.6292C14.9173 27.5832 15.0728 27.505 15.2087 27.399C15.3446 27.2929 15.4583 27.1611 15.5433 27.0111C15.6283 26.8611 15.6829 26.6959 15.704 26.5248C15.7252 26.3537 15.7124 26.1801 15.6664 26.014L13.1359 26.714ZM5.60041 8.26895C5.4336 8.22023 5.25878 8.20512 5.08608 8.22449C4.91339 8.24387 4.74626 8.29735 4.5944 8.38182C4.44253 8.4663 4.30896 8.58009 4.20142 8.7166C4.09388 8.85311 4.01452 9.00961 3.96794 9.17703C3.92137 9.34445 3.9085 9.51945 3.93009 9.69188C3.95168 9.86432 4.0073 10.0307 4.09372 10.1815C4.18014 10.3323 4.29564 10.4644 4.43352 10.5702C4.57139 10.6759 4.7289 10.7533 4.89691 10.7977L5.60041 8.26895ZM35.3294 27.519C35.5003 27.4794 35.6616 27.4061 35.8036 27.3032C35.9457 27.2003 36.0657 27.07 36.1565 26.9199C36.2474 26.7698 36.3072 26.6031 36.3325 26.4295C36.3578 26.2559 36.3481 26.0791 36.3038 25.9093C36.2596 25.7396 36.1818 25.5804 36.075 25.4412C35.9683 25.3021 35.8347 25.1857 35.6822 25.0991C35.5297 25.0124 35.3613 24.9572 35.1871 24.9367C35.0129 24.9162 34.8364 24.9308 34.6679 24.9797L35.3294 27.519ZM17.8452 30.7285C18.3877 32.6885 17.1977 34.7587 15.0907 35.3064L15.7504 37.8457C19.2102 36.948 21.3242 33.4672 20.3757 30.0285L17.8452 30.7285ZM15.0907 35.3064C12.9697 35.8577 10.8417 34.6257 10.2957 32.6482L7.76516 33.3482C8.71016 36.7695 12.3047 38.7417 15.7504 37.8457L15.0907 35.3064ZM10.2957 32.6482C9.75316 30.6882 10.9432 28.618 13.0502 28.0702L12.3904 25.5327C8.93066 26.4305 6.81491 29.9095 7.76516 33.3482L10.2957 32.6482ZM13.0502 28.0702C15.1712 27.519 17.2992 28.751 17.8452 30.7285L20.3757 30.0285C19.4307 26.6072 15.8362 24.635 12.3904 25.531L13.0502 28.0702ZM15.6664 26.014L11.9004 12.3815L9.36991 13.0815L13.1359 26.714L15.6664 26.014ZM8.58241 9.09495L5.60041 8.26895L4.89691 10.7977L7.88066 11.6255L8.58241 9.09495ZM11.9004 12.3815C11.6779 11.5939 11.2554 10.8774 10.674 10.3015C10.0926 9.72558 9.37202 9.30993 8.58241 9.09495L7.88416 11.6255C8.62791 11.832 9.18091 12.3972 9.36991 13.0815L11.9004 12.3815ZM19.4429 31.6489L35.3294 27.519L34.6697 24.9797L18.7814 29.1097L19.4429 31.6489Z" fill="#065988"/>
<path d="M16.7389 15.2776C15.8901 12.2064 15.4667 10.6699 16.1877 9.46064C16.9069 8.24964 18.4907 7.83839 21.6582 7.01414L25.0181 6.14264C28.1856 5.32014 29.7694 4.90714 31.0172 5.60539C32.2649 6.30539 32.6901 7.84014 33.5371 10.9131L34.4384 14.1716C35.2872 17.2429 35.7124 18.7794 34.9914 19.9904C34.2704 21.1996 32.6866 21.6126 29.5191 22.4351L26.1591 23.3084C22.9916 24.1309 21.4079 24.5421 20.1602 23.8439C18.9124 23.1439 18.4889 21.6091 17.6401 18.5379L16.7389 15.2776Z" stroke="#065988" stroke-width="1.5"/>
</svg>
