<svg width="42" height="42" viewBox="0 0 42 42" fill="none" xmlns="http://www.w3.org/2000/svg">
<path d="M18.375 12.6875C18.1429 12.6875 17.9204 12.7797 17.7563 12.9438C17.5922 13.1079 17.5 13.3304 17.5 13.5625C17.5 13.7946 17.5922 14.0171 17.7563 14.1812C17.9204 14.3453 18.1429 14.4375 18.375 14.4375H23.625C23.8571 14.4375 24.0796 14.3453 24.2437 14.1812C24.4078 14.0171 24.5 13.7946 24.5 13.5625C24.5 13.3304 24.4078 13.1079 24.2437 12.9438C24.0796 12.7797 23.8571 12.6875 23.625 12.6875H18.375ZM16.625 22.3125C16.625 22.7766 16.4406 23.2217 16.1124 23.5499C15.7842 23.8781 15.3391 24.0625 14.875 24.0625C14.4109 24.0625 13.9658 23.8781 13.6376 23.5499C13.3094 23.2217 13.125 22.7766 13.125 22.3125C13.125 21.8484 13.3094 21.4033 13.6376 21.0751C13.9658 20.7469 14.4109 20.5625 14.875 20.5625C15.3391 20.5625 15.7842 20.7469 16.1124 21.0751C16.4406 21.4033 16.625 21.8484 16.625 22.3125ZM16.625 28.4375C16.625 28.9016 16.4406 29.3468 16.1124 29.6749C15.7842 30.0031 15.3391 30.1875 14.875 30.1875C14.4109 30.1875 13.9658 30.0031 13.6376 29.6749C13.3094 29.3468 13.125 28.9016 13.125 28.4375C13.125 27.9734 13.3094 27.5283 13.6376 27.2001C13.9658 26.8719 14.4109 26.6875 14.875 26.6875C15.3391 26.6875 15.7842 26.8719 16.1124 27.2001C16.4406 27.5283 16.625 27.9734 16.625 28.4375ZM21 24.0625C21.4641 24.0625 21.9092 23.8781 22.2374 23.5499C22.5656 23.2217 22.75 22.7766 22.75 22.3125C22.75 21.8484 22.5656 21.4033 22.2374 21.0751C21.9092 20.7469 21.4641 20.5625 21 20.5625C20.5359 20.5625 20.0908 20.7469 19.7626 21.0751C19.4344 21.4033 19.25 21.8484 19.25 22.3125C19.25 22.7766 19.4344 23.2217 19.7626 23.5499C20.0908 23.8781 20.5359 24.0625 21 24.0625ZM22.75 28.4375C22.75 28.9016 22.5656 29.3468 22.2374 29.6749C21.9092 30.0031 21.4641 30.1875 21 30.1875C20.5359 30.1875 20.0908 30.0031 19.7626 29.6749C19.4344 29.3468 19.25 28.9016 19.25 28.4375C19.25 27.9734 19.4344 27.5283 19.7626 27.2001C20.0908 26.8719 20.5359 26.6875 21 26.6875C21.4641 26.6875 21.9092 26.8719 22.2374 27.2001C22.5656 27.5283 22.75 27.9734 22.75 28.4375ZM27.125 24.0625C27.5891 24.0625 28.0342 23.8781 28.3624 23.5499C28.6906 23.2217 28.875 22.7766 28.875 22.3125C28.875 21.8484 28.6906 21.4033 28.3624 21.0751C28.0342 20.7469 27.5891 20.5625 27.125 20.5625C26.6609 20.5625 26.2158 20.7469 25.8876 21.0751C25.5594 21.4033 25.375 21.8484 25.375 22.3125C25.375 22.7766 25.5594 23.2217 25.8876 23.5499C26.2158 23.8781 26.6609 24.0625 27.125 24.0625Z" fill="#065988"/>
<path fill-rule="evenodd" clip-rule="evenodd" d="M14 6.125C14.2321 6.125 14.4546 6.21719 14.6187 6.38128C14.7828 6.54538 14.875 6.76794 14.875 7V8.75H27.125V7C27.125 6.76794 27.2172 6.54538 27.3813 6.38128C27.5454 6.21719 27.7679 6.125 28 6.125C28.2321 6.125 28.4546 6.21719 28.6187 6.38128C28.7828 6.54538 28.875 6.76794 28.875 7V8.75525C29.3032 8.75875 29.6847 8.77392 30.0195 8.80075C30.6582 8.85325 31.2183 8.9635 31.7362 9.226C32.5592 9.64582 33.2282 10.3154 33.6472 11.1387C33.9115 11.6567 34.0218 12.2167 34.0743 12.8537C34.125 13.475 34.125 14.2397 34.125 15.1882V28.5617C34.125 29.5102 34.125 30.2767 34.0743 30.8945C34.0218 31.5332 33.9115 32.0933 33.6472 32.6112C33.2279 33.434 32.559 34.1029 31.7362 34.5222C31.2183 34.7865 30.6583 34.8968 30.0213 34.9493C29.4 35 28.6353 35 27.6885 35H14.3132C13.3647 35 12.5983 35 11.9805 34.9493C11.3418 34.8968 10.7817 34.7865 10.2637 34.5222C9.44039 34.1032 8.77082 33.4342 8.351 32.6112C8.0885 32.0933 7.97825 31.5333 7.92575 30.8963C7.875 30.275 7.875 29.5085 7.875 28.56V15.19C7.875 14.3588 7.875 13.671 7.91 13.0952L7.92575 12.8573C7.97825 12.2185 8.0885 11.6585 8.351 11.1405C8.77052 10.3169 9.44012 9.64727 10.2637 9.22775C10.7817 8.96525 11.3417 8.855 11.9787 8.8025C12.3159 8.77567 12.698 8.7605 13.125 8.757V7C13.125 6.76794 13.2172 6.54538 13.3813 6.38128C13.5454 6.21719 13.7679 6.125 14 6.125ZM13.125 11.375V10.5052C12.7904 10.508 12.456 10.5214 12.1223 10.5455C11.5938 10.5875 11.2892 10.668 11.0582 10.7853C10.5639 11.037 10.162 11.4389 9.91025 11.9332C9.793 12.1642 9.7125 12.4688 9.6705 12.9973C9.625 13.538 9.625 14.231 9.625 15.225V16.1875H32.375V15.225C32.375 14.231 32.375 13.538 32.3295 12.9973C32.2875 12.4688 32.207 12.1642 32.0898 11.9332C31.838 11.4389 31.4361 11.037 30.9417 10.7853C30.7107 10.668 30.4062 10.5875 29.8778 10.5455C29.544 10.5214 29.2096 10.508 28.875 10.5052V11.375C28.875 11.6071 28.7828 11.8296 28.6187 11.9937C28.4546 12.1578 28.2321 12.25 28 12.25C27.7679 12.25 27.5454 12.1578 27.3813 11.9937C27.2172 11.8296 27.125 11.6071 27.125 11.375V10.5H14.875V11.375C14.875 11.6071 14.7828 11.8296 14.6187 11.9937C14.4546 12.1578 14.2321 12.25 14 12.25C13.7679 12.25 13.5454 12.1578 13.3813 11.9937C13.2172 11.8296 13.125 11.6071 13.125 11.375ZM32.375 17.9375H9.625V28.525C9.625 29.519 9.625 30.2138 9.6705 30.7528C9.7125 31.2812 9.793 31.5857 9.91025 31.8167C10.162 32.3111 10.5639 32.713 11.0582 32.9648C11.2892 33.082 11.5938 33.1625 12.1223 33.2045C12.663 33.25 13.356 33.25 14.35 33.25H27.65C28.644 33.25 29.3388 33.25 29.8778 33.2045C30.4062 33.1625 30.7107 33.082 30.9417 32.9648C31.4361 32.713 31.838 32.3111 32.0898 31.8167C32.207 31.5857 32.2875 31.2812 32.3295 30.7528C32.375 30.2138 32.375 29.519 32.375 28.525V17.9375Z" fill="#065988"/>
</svg>
